<svg width="44" height="45" viewBox="0 0 44 45" fill="none" xmlns="http://www.w3.org/2000/svg">
<mask id="mask0_1_60" style="mask-type:luminance" maskUnits="userSpaceOnUse" x="0" y="0" width="44" height="45">
<path fill-rule="evenodd" clip-rule="evenodd" d="M0 22.4861C0 10.3986 9.84974 0.599854 22 0.599854C34.1503 0.599854 44 10.3986 44 22.4861C44 34.5735 34.1503 44.3723 22 44.3723C9.84974 44.3723 0 34.5735 0 22.4861Z" fill="white"/>
</mask>
<g mask="url(#mask0_1_60)">
<path fill-rule="evenodd" clip-rule="evenodd" d="M0 22.4861C0 10.3986 9.84974 0.599854 22 0.599854C34.1503 0.599854 44 10.3986 44 22.4861C44 34.5735 34.1503 44.3723 22 44.3723C9.84974 44.3723 0 34.5735 0 22.4861Z" fill="#0E5A4C"/>
<path fill-rule="evenodd" clip-rule="evenodd" d="M22.001 10.8135C18.8144 10.8135 18.4145 10.8273 17.1629 10.884C15.9138 10.9409 15.0612 11.1376 14.3151 11.4263C13.5434 11.7244 12.8888 12.1233 12.2366 12.7723C11.5839 13.4211 11.183 14.0724 10.8824 14.8399C10.5915 15.5823 10.3935 16.4308 10.3372 17.6729C10.2813 18.918 10.2666 19.3161 10.2666 22.4862C10.2666 25.6564 10.2808 26.053 10.3375 27.2981C10.3949 28.5408 10.5927 29.389 10.8826 30.1312C11.1825 30.8989 11.5834 31.5501 12.2359 32.199C12.8878 32.8483 13.5424 33.248 14.3137 33.5462C15.0602 33.8348 15.9131 34.0316 17.162 34.0885C18.4135 34.1451 18.8132 34.159 21.9996 34.159C25.1864 34.159 25.5851 34.1451 26.8367 34.0885C28.0858 34.0316 28.9394 33.8348 29.686 33.5462C30.4574 33.248 31.1111 32.8483 31.763 32.199C32.4157 31.5501 32.8166 30.8989 33.1173 30.1314C33.4057 29.389 33.6037 28.5405 33.6624 27.2983C33.7186 26.0532 33.7333 25.6564 33.7333 22.4862C33.7333 19.3161 33.7186 18.9183 33.6624 17.6732C33.6037 16.4305 33.4057 15.5823 33.1173 14.8401C32.8166 14.0724 32.4157 13.4211 31.763 12.7723C31.1104 12.123 30.4577 11.7242 29.6852 11.4263C28.9372 11.1376 28.0841 10.9409 26.835 10.884C25.5834 10.8273 25.185 10.8135 21.9974 10.8135H22.001ZM20.9486 12.9173C21.261 12.9168 21.6096 12.9173 22.0012 12.9173C25.134 12.9173 25.5053 12.9285 26.7425 12.9844C27.8865 13.0365 28.5074 13.2266 28.921 13.3864C29.4686 13.598 29.8589 13.8509 30.2694 14.2594C30.68 14.668 30.9343 15.0571 31.1474 15.6018C31.308 16.0128 31.4994 16.6304 31.5515 17.7685C31.6077 18.999 31.6199 19.3687 31.6199 22.4839C31.6199 25.599 31.6077 25.9687 31.5515 27.1992C31.4992 28.3373 31.308 28.9549 31.1474 29.3659C30.9347 29.9107 30.68 30.2985 30.2694 30.7068C29.8587 31.1154 29.4688 31.3683 28.921 31.5799C28.5079 31.7404 27.8865 31.93 26.7425 31.9821C25.5056 32.038 25.134 32.0502 22.0012 32.0502C18.8681 32.0502 18.4968 32.038 17.2599 31.9821C16.1159 31.9296 15.495 31.7394 15.0811 31.5796C14.5336 31.368 14.1425 31.1151 13.7318 30.7066C13.3211 30.298 13.0669 29.9099 12.8537 29.3649C12.6931 28.954 12.5017 28.3363 12.4497 27.1982C12.3934 25.9677 12.3822 25.5981 12.3822 22.4809C12.3822 19.3638 12.3934 18.9961 12.4497 17.7656C12.502 16.6275 12.6931 16.0098 12.8537 15.5984C13.0664 15.0537 13.3211 14.6646 13.7318 14.256C14.1425 13.8475 14.5336 13.5946 15.0811 13.3825C15.4947 13.222 16.1159 13.0323 17.2599 12.98C18.3423 12.9314 18.7618 12.9168 20.9486 12.9144V12.9173ZM28.2643 14.8552C27.487 14.8552 26.8563 15.4819 26.8563 16.2555C26.8563 17.0288 27.487 17.6562 28.2643 17.6562C29.0417 17.6562 29.6724 17.0288 29.6724 16.2555C29.6724 15.4822 29.0417 14.8547 28.2643 14.8547V14.8552ZM22.0011 16.492C18.6734 16.492 15.9755 19.176 15.9755 22.4865C15.9755 25.7969 18.6734 28.4797 22.0011 28.4797C25.3287 28.4797 28.0257 25.7969 28.0257 22.4865C28.0257 19.176 25.3285 16.492 22.0008 16.492H22.0011ZM22.0012 18.5956C24.1612 18.5956 25.9124 20.3375 25.9124 22.4865C25.9124 24.6353 24.1612 26.3774 22.0012 26.3774C19.8411 26.3774 18.0901 24.6353 18.0901 22.4865C18.0901 20.3375 19.8411 18.5956 22.0012 18.5956Z" fill="white"/>
</g>
</svg>
